<?xml version="1.0" encoding="UTF-8"?>
<svg width="934px" height="495px" viewBox="0 0 934 495" version="1.1" xmlns="http://www.w3.org/2000/svg" xmlns:xlink="http://www.w3.org/1999/xlink">
    <!-- Generator: Sketch 52.2 (67145) - http://www.bohemiancoding.com/sketch -->
    <title>Group 6</title>
    <desc>Created with Sketch.</desc>
    <defs>
        <path d="M37.044,11.199 C37.044,11.199 40.602,31.952 39.025,39.272 C37.448,46.592 24.864,41.39 21.443,43.458 C18.022,45.526 14.807,48.653 14.807,48.653 L0.282,35.429 C0.282,35.429 11.592,28.17 9.092,20.219 C6.591,12.267 7.123,3.386 14.807,1.009 C22.492,-1.369 34.785,1.003 37.044,11.199 Z" id="path-1"></path>
        <path d="M84.543,14.628 C84.543,14.628 121.671,60.522 125.215,71.726 C128.759,82.93 143.551,144.512 143.551,144.512 C143.551,144.512 149.84,160.127 156.628,160.7 C160.331,161.013 161.604,164.502 161.604,164.502 L131.855,164.502 C131.855,164.502 125.204,147.93 122.727,141.673 C120.25,135.417 104.197,107.647 100.669,94.994 C97.14,82.341 95.196,80.893 95.196,80.893 L67.685,56.116 C67.685,56.116 61.773,78.46 56.654,94.994 C51.536,111.528 27.941,151.589 25.831,156.519 C25.831,156.519 31.154,160.833 32.559,162.819 L0.514,162.819 C0.514,162.819 18.609,114.063 21.079,107.051 C23.549,100.038 31.046,80.055 32.559,56.116 C34.073,32.176 33.861,10.603 38.661,2.436 C43.462,-5.731 84.543,14.628 84.543,14.628 Z" id="path-3"></path>
        <path d="M129.886,120.527 C116.485,114.624 83.282,93.769 83.282,93.769 C75.544,100.211 50.696,133.309 50.696,133.309 C24.702,124.337 7.982,100.193 7.982,100.193 C13.752,92.02 38.584,65.978 38.584,65.978 C33.163,64.442 -1.407,51.991 0.998,39.621 C3.402,27.25 19.004,0.328 19.004,0.328 C25.177,0.636 31.79,3.391 31.79,3.391 C27.844,14.403 26.354,39.621 26.354,39.621 C33.963,40.848 63.145,43.072 77.491,50.676 C91.837,58.279 109.711,80.733 117.73,90.634 C124.352,98.81 144.089,105.139 150.764,107.096 C144.722,112.75 137.66,117.33 129.886,120.527 Z" id="path-5"></path>
        <polygon id="path-7" points="120.156 27.016 11.376 0.956 0.706 46 109.487 72.06"></polygon>
        <path d="M4.117,4.781 L0.585,11.03 C0.585,11.03 14.581,50.891 34.578,82.315 C54.574,113.739 65.299,144.277 65.299,144.277 L92.262,144.277 C92.262,144.277 65.407,72.792 65.299,69.856 C65.191,66.921 54.727,0.632 54.727,0.632 L4.117,4.781 Z" id="path-9"></path>
        <path d="M25.75,0.854 L31.183,0.854 C31.183,0.854 56.648,1.497 74.123,19.208 C91.599,36.92 95.623,51.393 95.623,51.393 C95.623,51.393 94.247,56.219 87.993,58.966 L65.902,42.556 C65.902,42.556 73.496,63.219 75.727,76.632 C75.727,76.632 45.969,94.282 21.585,87.03 L12.105,19.974 L0.411,17.204 C0.411,17.204 1.118,6.542 25.75,0.854 Z" id="path-11"></path>
        <polygon id="path-13" points="108.411 23.204 113.355 24.375 120.105 25.974 127.063 75.193 0.768 45.277 11.437 0.234"></polygon>
        <path d="M5.966,6.419 C5.966,6.419 -1.387,13.886 0.278,23.099 C1.944,32.311 11.971,32.89 11.971,32.89 L11.971,38.277 C11.971,38.277 14.126,43.375 19.433,40.981 C24.739,38.588 28.183,33.854 28.183,33.854 C28.183,33.854 24.607,28.861 26.944,21.132 C29.28,13.404 30.789,9.569 26.944,4.732 C23.334,0.192 10.756,-1.379 5.966,6.419 Z" id="path-15"></path>
    </defs>
    <g id="Page-1" stroke="none" stroke-width="1" fill="none" fill-rule="evenodd">
        <g id="Desktop-HD" transform="translate(-277.000000, -181.000000)">
            <g id="Group-6" transform="translate(277.000000, 181.000000)">
                <g id="Group-4" transform="translate(709.000000, 228.000000)">
                    <path d="M78.08,142.038 C78.08,142.038 114.38,34.601 65.64,88.779 C65.64,88.779 97.22,14.213 89.55,1.518 C81.89,-11.177 31.92,67.341 31.92,67.341 L14.95,157.278 L78.08,142.038 Z" id="Fill-5" fill="#73ADD4"></path>
                    <path d="M198.78,238.583 C198.78,238.583 197.94,197.124 156.47,201.65 C156.47,201.65 159.75,174.347 137.1,154.511 C114.45,134.674 86.66,151.026 86.66,151.026 C86.66,151.026 92.7,98.586 37.04,126.078 C-18.616,153.569 5.487,238.583 5.487,238.583 L198.78,238.583 Z" id="Fill-6" fill="#99C2DD"></path>
                    <path d="M27.07,238.583 C27.07,238.583 43.77,207.729 86.66,201.65 C129.55,195.571 212.95,189.5 223.16,163.522 C233.36,137.544 182.38,142.795 149.32,151.778 C116.27,160.761 115.19,153.863 115.82,137.98 C116.44,122.097 144.68,120.56 141.36,102.874 C138.04,85.187 100.84,93.931 93.5,118.106 C86.16,142.281 82.24,159.634 70.89,163.522 C59.54,167.41 32.47,177.744 18.93,196.747 C5.392,215.75 5.48699081,238.583 5.48699081,238.583 L27.07,238.583 Z" id="Fill-7" fill="#CCDEE9"></path>
                    <path d="M3.538,230.098 C3.538,230.098 31.64,205.265 60.94,189.583 C92.46,172.711 197.1,167.511 210.29,157.278" id="Stroke-8" stroke="#FFFFFF" stroke-width="2" stroke-linecap="round" stroke-linejoin="round"></path>
                    <path d="M120.41,105.939 C120.41,105.939 111.67,115.482 106.91,129.954 C102.15,144.426 96.34,172.254 71.49,185.166" id="Stroke-9" stroke="#FFFFFF" stroke-width="2" stroke-linecap="round" stroke-linejoin="round"></path>
                </g>
                <g id="Group-5" transform="translate(0.000000, 297.000000)">
                    <path d="M8.504,169.583 C8.504,169.583 2.683,138.736 14.222,116.376 C25.762,94.016 43.941,97.79 41.396,75.204 C38.85,52.619 38.728,9.349 94.042,0.819 C149.355,-7.712 123.732,169.583 123.732,169.583 L8.504,169.583 Z" id="Fill-10" fill="#73ADD4"></path>
                    <path d="M94.042,169.583 C94.042,169.583 65.87,87.496 23.951,64.635 C-17.969,41.774 4.121,95.985 33.657,123.339 C63.193,150.694 68.347,155.645 68.347,155.645 C68.347,155.645 28.476,127.003 7.036,139.837 C-14.404,152.671 43.477,167.172 94.042,169.583 Z" id="Fill-11" fill="#99C2DD"></path>
                    <path d="M7.036,64.635 C7.036,64.635 69.757,143.731 94.042,169.583" id="Stroke-12" stroke="#FFFFFF" stroke-width="2" stroke-linecap="round" stroke-linejoin="round"></path>
                    <path d="M13.33,145.914 C13.33,145.914 73.036,162.891 92.785,168.234" id="Stroke-13" stroke="#FFFFFF" stroke-width="2" stroke-linecap="round" stroke-linejoin="round"></path>
                </g>
                <polygon id="Fill-14" fill="#FFFFFF" points="94 0 94 466.767 724.313 466.767 813.603 50.802"></polygon>
                <g id="Group-2" transform="translate(23.000000, 91.000000)">
                    <path d="M136.916,385.07 C180.422,385.07 215.743,389.163 215.743,394.205 C215.743,399.247 180.422,403.341 136.916,403.341 C93.41,403.341 58.089,399.247 58.089,394.205 C58.089,389.163 93.41,385.07 136.916,385.07 Z" id="Fill-4" fill="#CCDEE9"></path>
                    <path d="M216.298,3.006 C198.023,0.295 179.449,0.295 161.174,3.006 L155.836,45.595 C139.864,49.264 124.618,55.579 110.729,64.279 L76.84,37.938 C62.001,48.944 48.867,62.078 37.861,76.917 L64.202,110.806 C55.502,124.695 49.187,139.941 45.518,155.913 L2.929,161.251 C0.218,179.526 0.218,198.1 2.929,216.375 L45.518,221.713 C49.187,237.685 55.502,252.931 64.202,266.82 L37.861,300.709 C48.867,315.548 62.001,328.682 76.84,339.688 L110.729,313.347 C124.618,322.047 139.864,328.362 155.836,332.031 L161.174,374.62 C179.449,377.331 198.023,377.331 216.298,374.62 L221.636,332.031 C237.608,328.362 252.854,322.047 266.743,313.347 L300.632,339.688 C315.471,328.682 328.605,315.548 339.61,300.709 L313.27,266.82 C321.97,252.931 328.285,237.685 331.954,221.713 L374.543,216.375 C377.254,198.1 377.254,179.526 374.543,161.251 L331.954,155.913 C328.285,139.941 321.97,124.695 313.27,110.806 L339.61,76.917 C328.605,62.078 315.471,48.944 300.632,37.938 L266.743,64.279 C252.854,55.579 237.608,49.264 221.636,45.595 L216.298,3.006 Z M188.736,119.952 C226.741,119.952 257.597,150.807 257.597,188.813 C257.597,226.819 226.741,257.674 188.736,257.674 C150.73,257.674 119.875,226.819 119.875,188.813 C119.875,150.807 150.73,119.952 188.736,119.952 Z" id="Fill-16" fill="#CCDEE9"></path>
                    <g id="Fill-18" transform="translate(168.000000, 153.000000)">
                        <mask id="mask-2" fill="white">
                            <use xlink:href="#path-1"></use>
                        </mask>
                        <use id="Mask" fill="#F9AE8A" xlink:href="#path-1"></use>
                        <path d="M39.428,6.955 C39.428,6.955 37.778,15.232 35.102,16.92 C32.426,18.607 32.908,22.215 32.703,24.406 C32.703,24.406 26.744,22.556 25.041,24.406 C23.338,26.256 27.102,30.201 27.102,30.201 C27.102,30.201 25.021,33.567 19.855,34.064 C14.689,34.561 6.852,27.462 6.852,27.462 C6.852,27.462 0.204,6.397 0.282,4.234 C0.36,2.07 21.134,-18.109 39.428,6.955" fill="#1C2458" mask="url(#mask-2)"></path>
                    </g>
                    <g id="Fill-22-+-Fill-24-+-Fill-25-Mask" transform="translate(56.000000, 232.000000)">
                        <mask id="mask-4" fill="white">
                            <use xlink:href="#path-3"></use>
                        </mask>
                        <use id="Mask" fill="#3749BE" xlink:href="#path-3"></use>
                        <path d="M70.969,71.726 C70.539,69.902 67.685,56.116 67.685,56.116 C67.685,56.116 51.053,41.916 46.934,37.646 C42.815,33.376 41.019,35.476 45.603,40.825 C50.187,46.174 55.214,53.561 56.654,61.561 C58.094,69.561 59.826,84.398 59.826,84.398 C59.826,84.398 71.4,73.549 70.969,71.726 Z" id="Fill-22" fill="#1C2458" mask="url(#mask-4)"></path>
                        <polygon id="Fill-24" fill="#1C2458" mask="url(#mask-4)" points="123.191 183.256 180.4641 183.256 180.4641 156.1133 123.191 156.1133"></polygon>
                        <polygon id="Fill-25" fill="#1C2458" mask="url(#mask-4)" points="-5.531 180.121 51.7421 180.121 51.7421 152.9783 -5.531 152.9783"></polygon>
                    </g>
                    <path d="M111.354,138.546 C111.354,138.546 116.011,133.666 119.876,132.328 C123.741,130.989 129.925,122.019 119.876,121.398 C116.765,120.925 114.933,115.195 114.13,109.773 C113.327,104.35 106.422,102.705 101.758,106.579 C97.094,110.453 102.925,123.27 104.191,127.409 C104.979,131.072 102.569,134.858 102.569,134.858 L111.354,138.546 Z" id="Fill-27" fill="#F9AE8A"></path>
                    <g id="Fill-29-+-Fill-31-Mask" transform="translate(85.000000, 132.000000)">
                        <mask id="mask-6" fill="white">
                            <use xlink:href="#path-5"></use>
                        </mask>
                        <use id="Mask" fill="#11D02C" xlink:href="#path-5"></use>
                        <path d="M86.772,115.391 L83.282,93.769 C83.282,93.769 77.345,90.107 72.156,87.893 C66.966,85.678 69.298,90.055 72.156,93.769 C75.014,97.483 72.156,111.78 72.156,111.78 L86.772,115.391 Z" id="Fill-29" fill="#19B12F" mask="url(#mask-6)"></path>
                        <path d="M20.534,72.947 L38.584,65.978 C38.584,65.978 45.145,59.774 47.512,56.813 C49.879,53.852 39.014,57.797 34.904,58.853 C30.795,59.908 9.899,52.644 9.899,52.644 L20.534,72.947 Z" id="Fill-31" fill="#19B12F" mask="url(#mask-6)"></path>
                    </g>
                </g>
                <path d="M697.585291,144.301386 C702.115291,144.517386 706.311291,146.747386 709.025291,150.380386 C711.739291,154.013386 712.687291,158.670386 711.609291,163.075386 C699.790291,211.392386 667.452291,343.591386 657.476291,384.371386 C655.751291,391.424386 649.273291,396.269386 642.020291,395.930386 C601.856291,394.054386 475.866291,388.169386 428.475291,385.955386 C423.964291,385.745386 419.781291,383.537386 417.062291,379.932386 C414.342291,376.327386 413.369291,371.698386 414.405291,367.303386 C425.781291,319.067386 456.995291,186.713386 466.667291,145.698386 C468.346291,138.579386 474.863291,133.669386 482.169291,134.017386 C522.699291,135.952386 649.804291,142.020386 697.585291,144.301386 Z" id="Fill-15" fill="#EAF3F8"></path>
                <g id="Group" transform="translate(409.000000, 221.000000)">
                    <path d="M187.383,255.07 C230.889,255.07 266.21,259.163 266.21,264.205 C266.21,269.247 230.889,273.341 187.383,273.341 C143.878,273.341 108.556,269.247 108.556,264.205 C108.556,259.163 143.878,255.07 187.383,255.07 Z" id="Fill-3" fill="#CCDEE9"></path>
                    <g id="Fill-34" transform="translate(172.000000, 57.000000)">
                        <mask id="mask-8" fill="white">
                            <use xlink:href="#path-7"></use>
                        </mask>
                        <use id="Mask" fill="#CCDEE9" xlink:href="#path-7"></use>
                        <path d="M58.108,61.015 C58.108,61.015 53.613,38.158 53.318,35.666 C53.024,33.173 65.816,43.488 70.025,42.827 C74.234,42.166 74.317,41.341 70.025,31.501 C65.734,21.662 25.017,2.266 25.017,2.266 L53.296,64.779 L58.108,61.015 Z" fill="#A3C4D8" mask="url(#mask-8)"></path>
                    </g>
                    <path d="M256.771,246.512 L262.262,253.277 L266.432,264.819 L233.316,264.819 C233.316,264.819 240.693,259.956 244.623,258.515 L242.025,250.349 L256.771,246.512 Z" id="Fill-37" fill="#3749BE"></path>
                    <g id="Fill-39" transform="translate(170.000000, 109.000000)">
                        <mask id="mask-10" fill="white">
                            <use xlink:href="#path-9"></use>
                        </mask>
                        <use id="Mask" fill="#2A3475" xlink:href="#path-9"></use>
                        <path d="M36.309,104.105 C36.309,104.105 59.994,56.516 64.241,32.274 C68.488,8.033 71.803,-10.015 46.423,-10.145 C21.044,-10.276 -6.842,0.632 -6.842,0.632 C-6.842,0.632 26.598,95.545 36.309,104.105 Z" fill="#1C2458" mask="url(#mask-10)"></path>
                    </g>
                    <path d="M149.411,246.512 L147.649,253.277 L137.887,266.502 L110.942,266.502 C110.942,266.502 117.189,261.398 125.989,259.758 L131.229,250.736 L149.411,246.512 Z" id="Fill-42" fill="#3749BE"></path>
                    <path d="M214.902,104.436 L224.727,109.632 C224.727,109.632 231.223,126.972 200.3,176.434 C164.835,233.16 147.649,253.277 147.649,253.277 L122.08,253.277 L184.351,118.007 L214.902,104.436 Z" id="Fill-43" fill="#2A3475"></path>
                    <path d="M242.051,84.393 C242.051,84.393 247.739,86.768 248.659,91.966 C249.579,97.164 243.401,96.297 240.29,93.723 C240.29,93.723 237.933,97.621 235.676,89.759 C233.418,81.898 242.051,84.393 242.051,84.393 Z" id="Fill-44" fill="#F9AE8A"></path>
                    <g id="Fill-46-+-Fill-48-Mask" transform="translate(149.000000, 33.000000)">
                        <mask id="mask-12" fill="white">
                            <use xlink:href="#path-11"></use>
                        </mask>
                        <use id="Mask" fill="#384AC2" xlink:href="#path-11"></use>
                        <path d="M71.203,51.393 L65.902,42.556 C65.902,42.556 50.782,27.29 42.624,22.575 C34.467,17.86 42.18,25.711 49.594,33.863 C57.007,42.016 66.172,53.154 67.972,55.245 C69.772,57.336 77.783,61.739 71.203,51.393 Z" id="Fill-46" fill="#243296" mask="url(#mask-12)"></path>
                        <path d="M10.227,29.667 L12.105,19.974 C12.105,19.974 8.558,11.562 0.411,17.204 C-7.737,22.846 10.227,29.667 10.227,29.667 Z" id="Fill-48" fill="#243296" mask="url(#mask-12)"></path>
                    </g>
                    <g id="Fill-51-+-Fill-53-Mask" transform="translate(41.000000, 27.000000)">
                        <mask id="mask-14" fill="white">
                            <use xlink:href="#path-13"></use>
                        </mask>
                        <use id="Mask" fill="#CCDEE9" xlink:href="#path-13"></use>
                        <path d="M93.927,45.527 C94.024,43.754 94.414,40.902 95.926,41.131 C95.926,41.131 99.203,34.904 103.351,39.261 C105.544,41.565 105.182,45.005 104.04,47.857 C105.262,48.301 106.019,48.63 106.019,48.63 C106.019,48.63 106.154,62.409 94.86,67.889 C83.567,73.368 75.739,64.475 75.739,64.475 C76.044,64.781 92.922,45.501 92.922,45.501 C93.253,45.5 93.589,45.509 93.927,45.527 Z" id="Fill-51" fill="#A3C4D8" mask="url(#mask-14)"></path>
                        <path d="M113.838,21.616 C113.838,21.616 116.252,26.273 117.492,28.664 C117.965,29.577 118.267,30.57 118.382,31.592 C119.326,39.985 123.79,79.687 123.79,79.687 L149.842,75.193 L129.585,14.621 L113.838,21.616 Z" id="Fill-53" fill="#A3C4D8" mask="url(#mask-14)"></path>
                    </g>
                    <g id="Fill-56" transform="translate(152.000000, 0.000000)">
                        <mask id="mask-16" fill="white">
                            <use xlink:href="#path-15"></use>
                        </mask>
                        <use id="Mask" fill="#F9AE8A" xlink:href="#path-15"></use>
                        <path d="M4.882,4.732 C4.882,4.732 6.179,8.006 9.724,8.935 C13.269,9.864 13.443,12.397 13.346,14.824 C13.249,17.252 15.272,17.896 17.632,17.074 C19.991,16.252 21.977,18.137 21.383,20.859 C21.091,22.215 18.981,23.735 18.981,23.735 C18.981,23.735 21.969,29.553 27.359,27.454 C32.749,25.355 34.515,6.151 32.047,2.128 C29.58,-1.895 13.708,-1.851 10.958,-0.612 C8.207,0.626 4.882,4.732 4.882,4.732 Z" fill="#1C2458" mask="url(#mask-16)"></path>
                    </g>
                    <path d="M132.364,71.842 C132.364,71.842 132.208,65.755 134.39,66.084 C134.39,66.084 137.668,59.858 141.815,64.215 C145.962,68.572 140.973,76.991 138.845,77.816 C136.717,78.642 132.364,71.842 132.364,71.842 Z" id="Fill-59" fill="#F9AE8A"></path>
                    <path d="M114.203,89.429 C114.203,89.429 122.031,98.322 133.325,92.843 C144.618,87.363 144.483,73.584 144.483,73.584 C144.483,73.584 137.242,70.438 131.387,70.455 C131.387,70.455 114.508,89.734 114.203,89.429 Z" id="Fill-60" fill="#384AC2"></path>
                    <path d="M9.259,21.099 L22.204,6.93 C22.204,6.93 42.67,11.435 54.109,13.952 C58.759,14.976 62.509,18.402 63.948,22.941 C67.487,34.106 73.819,54.083 73.819,54.083 C73.819,54.083 59.685,69.555 51.785,78.202 C48.574,81.717 43.731,83.252 39.081,82.229 C27.642,79.711 7.176,75.206 7.176,75.206 L0.739,54.897 L33.709,62.154 L47.275,47.303 L41.198,28.129 L9.259,21.099 Z" id="Fill-61" fill="#CCDEE9"></path>
                    <path d="M338.91,98.016 L333.45,79.619 C333.45,79.619 313.067,74.744 301.676,72.019 C297.045,70.911 292.175,72.358 288.901,75.814 C280.845,84.317 266.432,99.53 266.432,99.53 C266.432,99.53 272.401,119.618 275.736,130.846 C277.092,135.41 280.78,138.904 285.411,140.011 C296.802,142.736 317.18,147.612 317.18,147.612 L331.84,132.146 L299.003,124.292 L293.274,105.01 L307.108,90.408 L338.91,98.016 Z" id="Fill-62" fill="#CCDEE9"></path>
                </g>
                <g id="Group-3" transform="translate(107.000000, 14.000000)">
                    <path d="M7.04,0.392 C10.574,0.392 13.443,3.261 13.443,6.796 C13.443,10.33 10.574,13.199 7.04,13.199 C3.506,13.199 0.636,10.33 0.636,6.796 C0.636,3.261 3.506,0.392 7.04,0.392 Z" id="Fill-63" fill="#F65D5D"></path>
                    <path d="M27.298,2.04 C30.833,2.04 33.702,4.909 33.702,8.444 C33.702,11.978 30.833,14.847 27.298,14.847 C23.764,14.847 20.895,11.978 20.895,8.444 C20.895,4.909 23.764,2.04 27.298,2.04 Z" id="Fill-64" fill="#F0A513"></path>
                    <path d="M47.557,3.688 C51.091,3.688 53.96,6.557 53.96,10.092 C53.96,13.626 51.091,16.495 47.557,16.495 C44.023,16.495 41.153,13.626 41.153,10.092 C41.153,6.557 44.023,3.688 47.557,3.688 Z" id="Fill-65" fill="#47D30A"></path>
                    <path d="M521.609,57.487 C521.749,55.673 521.162,53.877 519.978,52.495 C518.794,51.113 517.109,50.258 515.294,50.118 C504.073,49.254 481.886,47.545 470.664,46.68 C468.85,46.54 467.054,47.127 465.672,48.311 C464.29,49.495 463.435,51.18 463.296,52.995 C463.295,52.996 463.295,52.997 463.295,52.998 C463.155,54.812 463.742,56.608 464.926,57.99 C466.111,59.372 467.795,60.227 469.61,60.367 C480.831,61.231 503.018,62.941 514.24,63.805 C516.054,63.945 517.85,63.358 519.232,62.174 C520.614,60.99 521.469,59.305 521.609,57.49 C521.609,57.489 521.609,57.488 521.609,57.487 Z" id="Fill-66" fill="#EAF3F8"></path>
                    <path d="M616.93,64.831 C617.07,63.017 616.483,61.221 615.298,59.839 C614.114,58.457 612.43,57.602 610.615,57.462 C599.394,56.598 577.206,54.888 565.985,54.024 C564.171,53.884 562.375,54.471 560.993,55.655 C559.611,56.839 558.756,58.524 558.616,60.339 C558.616,60.34 558.616,60.341 558.616,60.342 C558.476,62.156 559.063,63.952 560.247,65.334 C561.431,66.716 563.116,67.571 564.931,67.711 C576.152,68.575 598.339,70.284 609.561,71.149 C611.375,71.289 613.171,70.702 614.553,69.518 C615.935,68.334 616.79,66.649 616.929,64.834 C616.929,64.833 616.93,64.832 616.93,64.831 Z" id="Fill-67" fill="#EAF3F8"></path>
                </g>
            </g>
        </g>
    </g>
</svg>